Coordinates
version=1
nRows=7
nColumns=40
inDegrees=yes

Units are S.I. units (second, meters, Newtons, ...)
Angles are in degrees.

endheader
time	pelvis_tilt	pelvis_list	pelvis_rotation	pelvis_tx	pelvis_ty	pelvis_tz	hip_flexion_r	hip_adduction_r	hip_rotation_r	knee_angle_r	knee_angle_r_beta	ankle_angle_r	subtalar_angle_r	mtp_angle_r	hip_flexion_l	hip_adduction_l	hip_rotation_l	knee_angle_l	knee_angle_l_beta	ankle_angle_l	subtalar_angle_l	mtp_angle_l	lumbar_extension	lumbar_bending	lumbar_rotation	arm_flex_r	arm_add_r	arm_rot_r	elbow_flex_r	pro_sup_r	wrist_flex_r	wrist_dev_r	arm_flex_l	arm_add_l	arm_rot_l	elbow_flex_l	pro_sup_l	wrist_flex_l	wrist_dev_l
     42.78714286	     -5.90090021	     -5.42596994	      7.09148304	      1.02423475	      0.92995499	      0.48738708	     10.00729691	      4.56043358	    -16.02092186	     12.92632805	     12.92632805	     11.09806070	     -0.84994489	     -2.44896876	     40.04208443	    -10.25042765	      2.88311399	     50.86784369	     50.86784369	      7.65983667	    -18.68342289	     15.95322092	    -11.45425798	      4.78947985	      2.55753225	     35.38333125	    -19.69229647	      4.08729923	     76.20977552	     44.65283720	      0.00000000	      0.00000000	      4.10324211	     -7.10035001	     -4.74320972	     22.28406039	     46.86132473	      0.00000000	      0.00000000
     42.79928571	     -6.24152533	     -5.40177690	      7.18809955	      1.02301263	      0.92938836	      0.48675712	      9.77077307	      4.53657453	    -16.06968796	     12.61629946	     12.61629946	     11.35176957	     -0.68347959	     -2.54278521	     40.42372710	     -9.74738937	      3.09950545	     47.33538445	     47.33538445	      7.98516746	    -18.21888538	     16.02124419	    -11.25083568	      4.83612016	      2.83124901	     37.35908802	    -19.83531105	      3.67456285	     77.62594441	     44.63187205	      0.00000000	      0.00000000	      2.78785892	     -7.01553607	     -4.73295486	     21.90467242	     46.82790754	      0.00000000	      0.00000000
     42.81142857	     -6.34153338	     -5.37048711	      7.28074326	      1.02226610	      0.92914414	      0.48604408	      9.17128868	      4.49160598	    -16.61873522	     12.20833573	     12.20833573	     11.64484621	      0.36633882	     -2.78471972	     40.19431185	     -9.28907239	      3.33674818	     43.33412260	     43.33412260	      7.25299766	    -17.85308701	     13.29661545	    -11.43715272	      4.81212863	      2.95381106	     38.32646414	    -19.77278147	      2.90494642	     82.25863102	     44.55243139	      0.00000000	      0.00000000	      0.76278802	     -7.21414628	     -4.25409796	     23.36713645	     46.61836110	      0.00000000	      0.00000000
     42.82357143	     -6.54122873	     -5.32480222	      7.32500942	      1.02145438	      0.92867030	      0.48521804	      8.72005022	      4.44894673	    -16.80528813	     11.85137203	     11.85137203	     11.92568163	      0.83665563	     -2.83070285	     39.98381615	     -8.83526758	      3.54252481	     39.34201319	     39.34201319	      6.93695272	    -17.05795305	     11.59579527	    -11.40468651	      4.81078630	      3.13437958	     39.89143803	    -19.59722833	      2.38054221	     84.67816140	     44.54771191	      0.00000000	      0.00000000	     -0.95342390	     -7.37441963	     -3.22753878	     23.92164461	     46.33147146	      0.00000000	      0.00000000
     42.83571429	     -6.73120809	     -5.28019172	      7.34257299	      1.02084399	      0.92813873	      0.48423784	      8.26386405	      4.41811111	    -16.79154218	     11.52497513	     11.52497513	     12.23146045	      1.09203009	     -2.91539858	     39.71698755	     -8.41761039	      3.71028924	     35.54242869	     35.54242869	      7.36127339	    -15.75402189	     11.69687535	    -11.29649735	      4.84571247	      3.17217128	     41.56543254	    -19.26411962	      2.17764139	     86.26755233	     44.51788020	      0.00000000	      0.00000000	     -2.34365301	     -7.34519804	     -3.06059716	     23.63794125	     46.26579026	      0.00000000	      0.00000000
     42.84785714	     -6.89367186	     -5.37306854	      7.36718842	      1.02038160	      0.92740804	      0.48317953	      7.77373380	      4.49966023	    -17.08539459	     11.19964815	     11.19964815	     12.62618253	      1.81570132	     -2.82588655	     39.37735267	     -8.18840999	      3.80289608	     31.81993695	     31.81993695	      7.16626989	    -14.38045501	     10.30562271	    -11.26561846	      5.02317044	      3.37456168	     42.75412103	    -19.12211371	      1.75075857	     89.15307102	     44.51658490	      0.00000000	      0.00000000	     -4.40067348	     -7.62507605	     -1.49393509	     25.33153158	     45.88128521	      0.00000000	      0.00000000
     42.86000000	     -6.99976012	     -5.40340300	      7.34911035	      1.02009789	      0.92669628	      0.48200433	      7.24784311	      4.53713830	    -17.09513109	     10.94584393	     10.94584393	     12.94905664	      2.06384885	     -2.93051377	     38.93522894	     -7.95744599	      3.66000954	     28.42440630	     28.42440630	      7.55979796	    -12.79057797	     10.65720234	    -11.17624869	      5.15827767	      3.50025276	     44.29756895	    -18.82769819	      1.62060931	     90.53630638	     44.48986358	      0.00000000	      0.00000000	     -5.71188890	     -7.48667440	     -1.33880410	     25.05087974	     45.82731093	      0.00000000	      0.00000000
